<?xml version="1.0" ?><svg height="435.06" id="svg2103" width="355.024" xmlns="http://www.w3.org/2000/svg" xmlns:cc="http://creativecommons.org/ns#" xmlns:dc="http://purl.org/dc/elements/1.1/" xmlns:inkscape="http://www.inkscape.org/namespaces/inkscape" xmlns:rdf="http://www.w3.org/1999/02/22-rdf-syntax-ns#" xmlns:sodipodi="http://sodipodi.sourceforge.net/DTD/sodipodi-0.dtd" xmlns:svg="http://www.w3.org/2000/svg"><defs id="defs2105"><marker id="ArrowEnd" markerHeight="3" markerUnits="strokeWidth" markerWidth="4" orient="auto" refX="0" refY="5" viewBox="0 0 10 10"><path d="M 0 0 L 10 5 L 0 10 z" id="path2108"/></marker><marker id="ArrowStart" markerHeight="3" markerUnits="strokeWidth" markerWidth="4" orient="auto" refX="10" refY="5" viewBox="0 0 10 10"><path d="M 10 0 L 0 5 L 10 10 z" id="path2111"/></marker></defs><path d="M 179.237,0 C 138.982,0 83.388,11.502 60.384,21.087 C 37.38,30.672 22.044,40.257 17.252,64.219 L 0,197.06 L 0,380.105 L 29.712,380.105 L 29.712,408.81 C 29.712,443.81 80.93,443.81 80.93,408.81 L 80.93,380.105 L 175.487,380.105 L 175.787,380.105 L 274.094,380.105 L 274.094,408.81 C 274.094,443.81 325.312,443.81 325.312,408.81 L 325.312,380.105 L 355.024,380.105 L 355.024,197.06 L 337.772,64.219 C 332.98,40.257 317.644,30.672 294.64,21.087 C 271.636,11.502 216.042,0 175.787,0" id="path2115" style="fill:#000000;stroke:none"/><g id="g2117"><g id="g2119"><g id="g2121"><path d="M 299.682,322.723 C 313.25,322.723 324.25,311.721 324.25,298.153 C 324.25,284.585 313.25,273.583 299.682,273.583 C 286.114,273.583 275.113,284.585 275.113,298.153 C 275.113,311.721 286.114,322.723 299.682,322.723 z" id="path2123" style="fill:#ffffff;stroke:none"/><path d="" id="path2125" style="fill:#ffffff;stroke:none"/></g><g id="g2127"><path d="M 55.342,322.723 C 41.774,322.723 30.774,311.721 30.774,298.153 C 30.774,284.585 41.774,273.583 55.342,273.583 C 68.91,273.583 79.911,284.585 79.911,298.153 C 79.911,311.721 68.91,322.723 55.342,322.723 z" id="path2129" style="fill:#ffffff;stroke:none"/><path d="" id="path2131" style="fill:#ffffff;stroke:none"/></g></g><path d="M 175.612,55.113 L 104.476,55.113 C 90.098,55.113 90.098,33.547 104.476,33.547 L 175.787,33.547 L 250.548,33.547 C 264.926,33.547 264.926,55.113 250.548,55.113 L 175.612,55.113 z" id="path2133" style="fill:#ffffff;stroke:none"/><path d="M 175.612,76.887 L 65.715,76.887 C 50.527,76.887 46.559,84.604 44.715,96.31 L 31.287,192.658 C 30.035,201.893 32.706,211.06 45.465,211.06 L 175.787,211.06 L 309.559,211.06 C 322.318,211.06 324.989,201.893 323.737,192.658 L 310.309,96.31 C 308.465,84.604 304.497,76.887 289.309,76.887 L 175.612,76.887 z" id="path2135" style="fill:#ffffff;stroke:none"/></g></svg>